<?xml version="1.0" encoding="UTF-8" standalone="no"?>
<!-- Created with Inkscape (http://www.inkscape.org/) -->

<svg
   xmlns:dc="http://purl.org/dc/elements/1.1/"
   xmlns:cc="http://creativecommons.org/ns#"
   xmlns:rdf="http://www.w3.org/1999/02/22-rdf-syntax-ns#"
   xmlns:svg="http://www.w3.org/2000/svg"
   xmlns="http://www.w3.org/2000/svg"
   xmlns:sodipodi="http://sodipodi.sourceforge.net/DTD/sodipodi-0.dtd"
   xmlns:inkscape="http://www.inkscape.org/namespaces/inkscape"
   width="744.09448819"
   height="1052.3622047"
   id="svg2"
   version="1.1"
   inkscape:version="0.48.1 r9760"
   sodipodi:docname="concept-art.svg">
  <defs
     id="defs4" />
  <sodipodi:namedview
     id="base"
     pagecolor="#ffffff"
     bordercolor="#666666"
     borderopacity="1.0"
     inkscape:pageopacity="0.0"
     inkscape:pageshadow="2"
     inkscape:zoom="1"
     inkscape:cx="299.602"
     inkscape:cy="546.23146"
     inkscape:document-units="px"
     inkscape:current-layer="layer1"
     showgrid="false"
     inkscape:window-width="1680"
     inkscape:window-height="1021"
     inkscape:window-x="1280"
     inkscape:window-y="0"
     inkscape:window-maximized="1" />
  <metadata
     id="metadata7">
    <rdf:RDF>
      <cc:Work
         rdf:about="">
        <dc:format>image/svg+xml</dc:format>
        <dc:type
           rdf:resource="http://purl.org/dc/dcmitype/StillImage" />
        <dc:title></dc:title>
      </cc:Work>
    </rdf:RDF>
  </metadata>
  <g
     inkscape:label="Layer 1"
     inkscape:groupmode="layer"
     id="layer1">
    <path
       style="color:#000000;fill:#87cdde;fill-opacity:1;fill-rule:nonzero;stroke:#000000;stroke-width:2;stroke-linecap:butt;stroke-linejoin:miter;stroke-miterlimit:4;stroke-opacity:1;stroke-dashoffset:0;marker:none;visibility:visible;display:inline;overflow:visible;enable-background:accumulate"
       d="m 298.46935,347.78639 c -17.11016,6.58899 -34.5678,5.37035 -49.01834,-3.34484 -14.15439,-16.49715 -29.20319,-39.40257 -27.76639,-64.75952 4.76044,-17.63125 17.72574,-31.89405 34.54705,-38.43954 18.27144,-2.28451 34.62929,-2.92955 49.29055,3.58826 11.1944,7.90942 23.92695,22.7321 27.20643,36.47688 6.0684,27.00847 -27.652,63.31284 -34.2593,66.47876 z"
       id="path3036"
       inkscape:connector-curvature="0"
       sodipodi:nodetypes="ccccccc" />
    <path
       transform="matrix(0.77297298,0,0,0.77297298,53.837837,28.103848)"
       style="color:#000000;fill:#87cdde;fill-opacity:1;fill-rule:nonzero;stroke:#000000;stroke-width:2.5874126;marker:none;visibility:visible;display:inline;overflow:visible;enable-background:accumulate"
       d="m 342.85714,176.6479 c 0,6.33087 -5.9644,39.89304 -8.00542,45.519 -0.55847,1.53937 -2.45744,-17.70068 -4.71243,-23.12408 1.08262,8.65708 -1.90613,22.24787 -2.66138,23.47398 -0.082,-6.72167 -0.66532,-6.91931 -4.99328,-15.30818 1.68977,1.82333 -1.06712,24.58347 -5.88679,27.97101 -3.64907,-8.34856 -2.81165,-6.96561 -4.0326,-13.28217 -4.07993,10.63272 -6.66674,15.17893 -10.72008,15.55322 -2.74625,-4.48869 -3.52488,-18.10238 -4.63252,-28.45632 0.086,7.03432 -1.16351,31.88948 -7.59156,35.31993 -2.99901,-2.37548 -5.15345,-16.99054 -5.6644,-22.30989 -1.93271,9.5056 -3.04623,12.54564 -6.84155,17.88641 -4.16693,-1.65458 -5.98122,-5.30917 -6.92994,-12.38952 -0.21666,6.84384 -2.83823,5.62164 -3.35519,7.35008 -4.26915,-4.25182 -6.91635,-20.18456 -7.45435,-29.27501 -0.87268,5.96788 -0.85623,11.55558 -2.36943,16.41909 -3.88008,-4.01066 -8.54525,-19.01444 -9.18956,-26.68094 -1.86124,5.83691 1.62995,19.86305 -0.49413,17.52683 -8.53509,-9.38751 -10.17967,-22.50637 -10.17967,-36.19344 0,-29.19219 23.70348,-54.35651 52.85714,-52.85714 12.68392,0.65233 22.53162,4.38724 29.89743,8.53498 1.42527,0.80258 7.33089,4.20722 12.61012,2.23551 1.85442,3.39192 -4.19825,5.64279 -3.27881,6.66027 8.47038,9.37365 13.6284,21.79765 13.6284,35.42638 z"
       id="path2985"
       inkscape:connector-curvature="0"
       sodipodi:nodetypes="scccccccccccccccccssscss" />
    <path
       sodipodi:type="arc"
       style="color:#000000;fill:#cccccc;fill-opacity:1;fill-rule:nonzero;stroke:#000000;stroke-width:2;stroke-linecap:butt;stroke-linejoin:miter;stroke-miterlimit:4;stroke-opacity:1;stroke-dasharray:none;stroke-dashoffset:0;marker:none;visibility:visible;display:inline;overflow:visible;enable-background:accumulate"
       id="path2988"
       sodipodi:cx="265.69537"
       sodipodi:cy="157.60693"
       sodipodi:rx="12.197592"
       sodipodi:ry="16.351845"
       d="m 277.89297,157.60693 a 12.197592,16.351845 0 1 1 -24.39519,0 12.197592,16.351845 0 1 1 24.39519,0 z" />
    <path
       sodipodi:type="arc"
       style="color:#000000;fill:#ffffff;fill-opacity:1;fill-rule:nonzero;stroke:none;stroke-width:2;stroke-linecap:butt;stroke-linejoin:miter;stroke-miterlimit:4;stroke-opacity:1;stroke-dasharray:none;stroke-dashoffset:0;marker:none;visibility:visible;display:inline;overflow:visible;enable-background:accumulate"
       id="path2990"
       sodipodi:cx="264.10437"
       sodipodi:cy="155.92757"
       sodipodi:rx="8.8388348"
       sodipodi:ry="12.904698"
       d="m 272.9432,155.92757 a 8.8388348,12.904698 0 1 1 -17.67766,0 8.8388348,12.904698 0 1 1 17.67766,0 z" />
    <path
       sodipodi:type="arc"
       style="color:#000000;fill:#000000;fill-opacity:1;fill-rule:nonzero;stroke:none;stroke-width:2;marker:none;visibility:visible;display:inline;overflow:visible;enable-background:accumulate"
       id="path2992"
       sodipodi:cx="263.04373"
       sodipodi:cy="159.10954"
       sodipodi:rx="5.6568542"
       sodipodi:ry="9.0156116"
       d="m 268.70059,159.10954 a 5.6568542,9.0156116 0 1 1 -11.31371,0 5.6568542,9.0156116 0 1 1 11.31371,0 z"
       transform="translate(-0.35355339,-0.70710678)" />
    <path
       sodipodi:type="arc"
       style="color:#000000;fill:#ffffff;fill-opacity:1;fill-rule:nonzero;stroke:none;stroke-width:2;marker:none;visibility:visible;display:inline;overflow:visible;enable-background:accumulate;opacity:0.85"
       id="path2994"
       sodipodi:cx="260.83401"
       sodipodi:cy="153.09914"
       sodipodi:rx="3.800699"
       sodipodi:ry="5.3033009"
       d="m 264.63471,153.09914 a 3.800699,5.3033009 0 1 1 -7.60139,0 3.800699,5.3033009 0 1 1 7.60139,0 z" />
    <path
       sodipodi:type="arc"
       style="color:#000000;fill:#87cdde;fill-opacity:1;fill-rule:nonzero;stroke:#000000;stroke-width:2.11042953;stroke-linecap:butt;stroke-linejoin:miter;stroke-miterlimit:4;stroke-opacity:1;stroke-dasharray:none;stroke-dashoffset:0;marker:none;visibility:visible;display:inline;overflow:visible;enable-background:accumulate"
       id="path3015"
       sodipodi:cx="273"
       sodipodi:cy="170.36218"
       sodipodi:rx="43"
       sodipodi:ry="43"
       d="m 316,170.36218 a 43,43 0 1 1 -86,0 43,43 0 1 1 86,0 z"
       transform="matrix(0.94767442,0,0,0.94767442,-166.71512,3.1642999)" />
    <path
       transform="matrix(1.3323567,0,0,1.3323567,-271.73339,105.17032)"
       d="m 316,170.36218 a 43,43 0 1 1 -86,0 43,43 0 1 1 86,0 z"
       sodipodi:ry="43"
       sodipodi:rx="43"
       sodipodi:cy="170.36218"
       sodipodi:cx="273"
       id="path3034"
       style="color:#000000;fill:#87cdde;fill-opacity:1;fill-rule:nonzero;stroke:#000000;stroke-width:1.50109959;stroke-linecap:butt;stroke-linejoin:miter;stroke-miterlimit:4;stroke-opacity:1;stroke-dasharray:none;stroke-dashoffset:0;marker:none;visibility:visible;display:inline;overflow:visible;enable-background:accumulate"
       sodipodi:type="arc" />
    <path
       transform="matrix(0.70930233,0,0,0.70930233,-101.63954,421.02389)"
       d="m 316,170.36218 a 43,43 0 1 1 -86,0 43,43 0 1 1 86,0 z"
       sodipodi:ry="43"
       sodipodi:rx="43"
       sodipodi:cy="170.36218"
       sodipodi:cx="273"
       id="path3039"
       style="color:#000000;fill:#87cdde;fill-opacity:1;fill-rule:nonzero;stroke:#000000;stroke-width:2.81967235;stroke-linecap:butt;stroke-linejoin:miter;stroke-miterlimit:4;stroke-opacity:1;stroke-dasharray:none;stroke-dashoffset:0;marker:none;visibility:visible;display:inline;overflow:visible;enable-background:accumulate"
       sodipodi:type="arc" />
    <path
       sodipodi:type="arc"
       style="color:#000000;fill:#87cdde;fill-opacity:1;fill-rule:nonzero;stroke:#000000;stroke-width:3.62105298;stroke-linecap:butt;stroke-linejoin:miter;stroke-miterlimit:4;stroke-opacity:1;stroke-dasharray:none;stroke-dashoffset:0;marker:none;visibility:visible;display:inline;overflow:visible;enable-background:accumulate"
       id="path3041"
       sodipodi:cx="273"
       sodipodi:cy="170.36218"
       sodipodi:rx="43"
       sodipodi:ry="43"
       d="m 316,170.36218 a 43,43 0 1 1 -86,0 43,43 0 1 1 86,0 z"
       transform="matrix(0.55232559,0,0,0.55232559,-58.784889,396.01679)" />
    <path
       style="color:#000000;fill:#87cdde;fill-opacity:1;fill-rule:nonzero;stroke:#000000;stroke-width:2.00000024;stroke-linecap:butt;stroke-linejoin:miter;stroke-miterlimit:4;stroke-opacity:1;stroke-dasharray:none;stroke-dashoffset:0;marker:none;visibility:visible;display:inline;overflow:visible;enable-background:accumulate"
       d="m 287.55025,461.85954 c -13.11676,0 -23.75,10.63324 -23.75,23.75 -0.80871,9.78895 -2.64571,19.61038 -4.20498,29.19307 -0.53899,3.31239 -3.87321,17.73319 -2.34735,31.93748 1.38728,-4.5208 0.98436,-7.521 3.51464,-11.67865 0,4.95661 -1.11575,17.06169 0.9823,21.19935 0.94261,-4.15334 1.77615,-4.9675 2.82732,-7.6358 -1.96157,7.1982 0.87934,9.48243 2.38732,13.51148 1.62949,1.81674 1.52924,-3.98775 3.54839,-2.6042 3.83956,8.13067 10.6535,8.32727 17.04236,8.32727 5.03027,0 5.08342,-1.1965 9.71619,-0.36933 5.19662,0.92783 5.6261,-5.25597 4.61958,-9.47867 1.04482,1.70661 3.13234,3.9572 3.63462,3.61174 0.95556,-2.95532 2.22534,-1.54427 1.68377,-4.77822 2.44852,1.02186 2.02652,1.99659 2.79586,1.16046 1.05708,-1.14885 1.85033,-9.80368 0.60153,-13.57965 1.76223,2.13891 4.26573,6.64903 5.01715,4.88679 1.56513,-3.6706 -1.10423,-12.48368 -1.10423,-16.72609 -0.34407,-2.20766 2.85594,2.53409 7.12507,-0.11014 -3.40789,-1.54202 -4.28319,-4.4053 -4.87863,-7.15717 -2.85167,-13.17919 -4.2116,-25.55957 -5.46091,-39.70972 0,-13.11676 -10.63324,-23.75 -23.75,-23.75 z"
       id="path3043"
       inkscape:connector-curvature="0"
       sodipodi:nodetypes="scccccccccsccccccccscs" />
  </g>
</svg>
